<?xml version="1.0" standalone="no"?>
<!DOCTYPE svg PUBLIC "-//W3C//DTD SVG 20010904//EN"
 "http://www.w3.org/TR/2001/REC-SVG-20010904/DTD/svg10.dtd">
<svg version="1.0" xmlns="http://www.w3.org/2000/svg"
 width="900.000000pt" height="512.000000pt" viewBox="0 0 900.000000 512.000000"
 preserveAspectRatio="xMidYMid meet">

<g transform="translate(0.000000,512.000000) scale(0.100000,-0.100000)"
fill="#000000" stroke="none">
<path d="M4305 5094 c-382 -39 -667 -121 -975 -281 -679 -351 -1170 -1002
-1319 -1748 -38 -191 -46 -277 -45 -510 0 -264 14 -381 74 -620 47 -190 92
-311 185 -500 237 -483 626 -880 1105 -1128 270 -140 534 -223 855 -269 52 -7
185 -13 315 -13 228 0 317 8 505 46 746 149 1397 640 1748 1319 140 270 223
534 269 855 17 118 17 512 0 630 -84 586 -326 1079 -727 1480 -391 391 -874
633 -1435 720 -101 15 -467 28 -555 19z m-82 -658 l518 -146 545 0 c583 0 587
0 614 -49 5 -11 10 -78 10 -150 l0 -130 53 -15 c28 -8 104 -29 167 -47 130
-37 170 -65 170 -118 0 -17 -88 -343 -195 -725 l-195 -695 0 -731 c0 -806 3
-767 -62 -789 -17 -6 -105 -11 -199 -11 l-168 0 -17 -57 c-49 -176 -55 -192
-81 -212 -14 -12 -38 -21 -53 -21 -14 0 -251 64 -526 142 l-499 143 -577 5
-578 5 -27 28 c-27 27 -28 31 -33 164 l-5 136 -170 48 c-192 55 -218 71 -217
136 0 21 88 351 196 734 l196 696 0 721 0 722 29 32 29 33 184 3 184 3 30 111
c16 61 37 123 46 139 17 28 68 51 98 44 8 -2 248 -69 533 -149z"/>
</g>
</svg>
